<?xml version="1.0" standalone="no"?>
<!DOCTYPE svg PUBLIC "-//W3C//DTD SVG 20010904//EN"
 "http://www.w3.org/TR/2001/REC-SVG-20010904/DTD/svg10.dtd">
<svg version="1.0" xmlns="http://www.w3.org/2000/svg"
 width="151.000000pt" height="151.000000pt" viewBox="0 0 151.000000 151.000000"
 preserveAspectRatio="xMidYMid meet">
<metadata>
Created by potrace 1.16, written by Peter Selinger 2001-2019
</metadata>
<g transform="translate(0.000000,151.000000) scale(0.100000,-0.100000)"
fill="#000000" stroke="none">
<path d="M0 755 l0 -755 755 0 755 0 0 755 0 755 -755 0 -755 0 0 -755z m948
535 c65 -34 75 -46 61 -67 -10 -17 -8 -23 14 -45 14 -14 28 -23 31 -20 3 3 6
-2 6 -11 0 -9 5 -17 10 -17 6 0 10 -11 10 -24 0 -13 5 -26 11 -28 7 -2 14 -35
16 -76 l5 -72 -44 -1 c-24 -1 -33 -4 -20 -6 17 -3 21 -9 17 -26 -3 -12 -7 -37
-9 -55 -1 -18 -8 -38 -14 -44 -7 -7 -12 -17 -12 -24 0 -6 -7 -15 -16 -18 -9
-4 -14 -9 -11 -12 5 -5 -70 -84 -79 -84 -2 0 -4 5 -4 11 0 17 -28 40 -35 29
-23 -38 -162 -70 -239 -56 l-35 7 4 57 c2 31 9 72 15 90 7 18 9 39 6 47 -3 9
0 15 8 15 9 0 12 -8 9 -24 -4 -18 0 -26 17 -31 25 -8 93 2 86 13 -2 4 8 7 22
6 47 -2 53 -4 47 -13 -3 -5 -1 -12 5 -16 5 -3 10 0 10 7 0 7 9 19 21 26 11 7
18 19 15 27 -2 7 1 16 9 19 7 2 15 17 17 33 3 27 5 28 53 27 28 -1 38 0 24 3
-22 3 -28 11 -33 44 -3 21 -11 39 -17 39 -5 0 -7 5 -3 12 5 8 2 9 -10 5 -10
-4 -15 -3 -11 3 3 6 0 10 -7 11 -9 0 -9 2 -2 5 7 3 10 14 7 24 -3 12 0 20 7
20 9 0 7 6 -5 20 -10 11 -20 18 -24 16 -3 -2 -12 2 -19 10 -18 19 -2 18 28 -3
23 -17 24 -16 72 37 55 62 53 69 -27 106 -27 13 -44 24 -37 24 7 0 29 -9 50
-20z m-79 -268 c6 -20 6 -30 0 -27 -5 4 -9 14 -9 24 0 9 -7 26 -15 37 -14 18
-14 18 -15 -7 0 -15 9 -38 20 -52 11 -14 20 -31 20 -39 0 -10 -3 -9 -11 2 -8
12 -9 11 -7 -7 3 -20 -36 -73 -54 -73 -5 0 6 14 24 31 31 28 32 30 8 23 -14
-4 -31 -15 -38 -25 -18 -26 -67 -25 -85 2 -8 11 -26 21 -41 23 -37 4 -39 9
-20 52 9 22 18 50 20 63 4 31 22 43 59 38 17 -2 44 -1 60 3 37 8 70 -19 84
-68z m-60 -436 c7 -8 11 -20 10 -28 -1 -7 -1 -22 0 -32 1 -18 2 -18 19 -3 10
10 23 17 28 17 4 0 -2 -7 -14 -16 -50 -35 -13 -122 46 -107 18 4 23 3 17 -6
-5 -8 -20 -10 -47 -6 -32 6 -39 4 -36 -6 3 -8 15 -20 29 -26 17 -9 19 -13 7
-13 -9 0 -25 10 -35 23 -16 20 -26 22 -98 21 -44 0 -59 1 -32 3 32 3 47 9 47
19 0 8 -10 14 -25 14 -24 0 -25 2 -23 68 l2 67 3 -62 c4 -59 5 -63 28 -63 23
0 25 4 26 48 1 26 0 55 -1 66 -2 17 15 35 31 36 4 0 12 -6 18 -14z"/>
<path d="M776 808 c-11 -6 -42 -12 -70 -14 l-50 -2 -18 -63 c-14 -49 -15 -65
-5 -72 23 -15 152 -1 200 22 l47 23 -41 59 c-22 32 -41 59 -42 59 -1 0 -11 -6
-21 -12z"/>
</g>
</svg>
